<?xml version="1.0" encoding="utf-8"?>
<!-- Generator: Adobe Illustrator 22.1.0, SVG Export Plug-In . SVG Version: 6.00 Build 0)  -->
<svg version="1.1" id="Layer_1" xmlns="http://www.w3.org/2000/svg" xmlns:xlink="http://www.w3.org/1999/xlink" x="0px" y="0px"
	 viewBox="0 0 95.1 64.8" style="enable-background:new 0 0 95.1 64.8;" xml:space="preserve">
<style type="text/css">
	.st0{fill:#FFFFFF;}
</style>
<text transform="matrix(1 0 0 1 -272.9754 48.8864)"><tspan x="0" y="0" class="st0" style="font-family:'ArialRoundedMTBold'; font-size:47.1172px; letter-spacing:-1;">D</tspan><tspan x="33.1" y="0" class="st0" style="font-family:'ArialRoundedMTBold'; font-size:47.1172px;">A</tspan><tspan x="67" y="0" class="st0" style="font-family:'ArialRoundedMTBold'; font-size:47.1172px;">N</tspan><tspan x="102.1" y="0" class="st0" style="font-family:'ArialRoundedMTBold'; font-size:47.1172px;">AHCO</tspan></text>
<g>
	<g>
		<path class="st0" d="M-339.6,15.3h-22.2c-3.5,0-6.3-2.8-6.3-6.3V7.9c0-3.5,2.8-6.3,6.3-6.3h22.2c3.5,0,6.3,2.8,6.3,6.3V9
			C-333.3,12.5-336.1,15.3-339.6,15.3z"/>
		<path class="st0" d="M-339.6,63.4h-22.2c-3.5,0-6.3-2.8-6.3-6.3V56c0-3.5,2.8-6.3,6.3-6.3h22.2c3.5,0,6.3,2.8,6.3,6.3v1.1
			C-333.3,60.6-336.1,63.4-339.6,63.4z"/>
		<path class="st0" d="M-355.5,7.9v49.2c0,3.5-2.8,6.3-6.3,6.3l0,0c-3.5,0-6.3-2.8-6.3-6.3V7.9c0-3.5,2.8-6.3,6.3-6.3l0,0
			C-358.3,1.6-355.5,4.4-355.5,7.9z"/>
	</g>
	<g>
		<path class="st0" d="M-304.3,15.3h21.9c3.6,0,6.4-2.9,6.4-6.4V8.1c0-3.6-2.9-6.4-6.4-6.4h-21.9c-3.6,0-6.4,2.9-6.4,6.4v0.8
			C-310.8,12.4-307.9,15.3-304.3,15.3z"/>
		<path class="st0" d="M-304.3,63.4h21.9c3.6,0,6.4-2.9,6.4-6.4v-0.8c0-3.6-2.9-6.4-6.4-6.4h-21.9c-3.6,0-6.4,2.9-6.4,6.4v0.8
			C-310.8,60.5-307.9,63.4-304.3,63.4z"/>
		<path class="st0" d="M-288.5,7.9v49.2c0,3.5,2.8,6.3,6.3,6.3l0,0c3.5,0,6.3-2.8,6.3-6.3V7.9c0-3.5-2.8-6.3-6.3-6.3l0,0
			C-285.7,1.6-288.5,4.4-288.5,7.9z"/>
	</g>
	<path class="st0" d="M-298.9,40.3h-46c-1.1,0-2-0.9-2-2V25.9c0-1.1,0.9-2,2-2h46c1.1,0,2,0.9,2,2v12.4
		C-296.8,39.4-297.7,40.3-298.9,40.3z"/>
</g>
<g>
	<g>
		<path class="st0" d="M30,14.9H7.8c-3.5,0-6.3-2.8-6.3-6.3V7.5c0-3.5,2.8-6.3,6.3-6.3H30c3.5,0,6.3,2.8,6.3,6.3v1.1
			C36.3,12,33.5,14.9,30,14.9z"/>
		<path class="st0" d="M30,63H7.8c-3.5,0-6.3-2.8-6.3-6.3v-1.1c0-3.5,2.8-6.3,6.3-6.3H30c3.5,0,6.3,2.8,6.3,6.3v1.1
			C36.3,60.2,33.5,63,30,63z"/>
		<path class="st0" d="M14.1,7.5v49.2c0,3.5-2.8,6.3-6.3,6.3h0c-3.5,0-6.3-2.8-6.3-6.3l0-49.2c0-3.5,2.8-6.3,6.3-6.3h0
			C11.3,1.2,14.1,4,14.1,7.5z"/>
	</g>
	<g>
		<path class="st0" d="M65.3,14.9h21.9c3.6,0,6.4-2.9,6.4-6.4V7.7c0-3.6-2.9-6.4-6.4-6.4H65.3c-3.6,0-6.4,2.9-6.4,6.4v0.8
			C58.8,12,61.7,14.9,65.3,14.9z"/>
		<path class="st0" d="M65.3,63h21.9c3.6,0,6.4-2.9,6.4-6.4v-0.8c0-3.6-2.9-6.4-6.4-6.4H65.3c-3.6,0-6.4,2.9-6.4,6.4v0.8
			C58.8,60.1,61.7,63,65.3,63z"/>
		<path class="st0" d="M81,7.5v49.2c0,3.5,2.8,6.3,6.3,6.3h0c3.5,0,6.3-2.8,6.3-6.3V7.5c0-3.5-2.8-6.3-6.3-6.3h0
			C83.9,1.2,81,4,81,7.5z"/>
	</g>
	<path class="st0" d="M70.7,39.9h-46c-1.1,0-2-0.9-2-2V25.5c0-1.1,0.9-2,2-2h46c1.1,0,2,0.9,2,2v12.4C72.8,39,71.8,39.9,70.7,39.9z"
		/>
</g>
</svg>
