<?xml version="1.0" encoding="utf-8"?>
<!-- Generator: Adobe Illustrator 22.1.0, SVG Export Plug-In . SVG Version: 6.00 Build 0)  -->
<svg version="1.1" id="Layer_1" xmlns="http://www.w3.org/2000/svg" xmlns:xlink="http://www.w3.org/1999/xlink" x="0px" y="0px"
	 viewBox="0 0 350 64.8" style="enable-background:new 0 0 350 64.8;" xml:space="preserve">
<style type="text/css">
	.st0{fill:none;stroke:#000000;stroke-width:3;stroke-miterlimit:10;}
	.st1{fill:#FFFFFF;}
	.st2{font-family:'ArialRoundedMTBold';}
	.st3{font-size:47.1172px;}
	.st4{letter-spacing:-1;}
</style>
<g>
	<g>
		<path class="st0" d="M409,15h-31.1c-1,0-1.9-0.8-1.9-1.9V3.2c0-1,0.8-1.9,1.9-1.9H409c1,0,1.9,0.8,1.9,1.9v9.9
			C410.8,14.2,410,15,409,15z"/>
		<path class="st0" d="M409,63.1h-31.1c-1,0-1.9-0.8-1.9-1.9v-9.9c0-1,0.8-1.9,1.9-1.9H409c1,0,1.9,0.8,1.9,1.9v9.9
			C410.8,62.3,410,63.1,409,63.1z"/>
		<path class="st0" d="M388.6,3.2v58.1c0,1-0.8,1.9-1.9,1.9h-8.9c-1,0-1.9-0.8-1.9-1.9V3.2c0-1,0.8-1.9,1.9-1.9h8.9
			C387.8,1.4,388.6,2.2,388.6,3.2z"/>
	</g>
	<g>
		<path class="st0" d="M435.4,15h30.8c1.1,0,2-0.9,2-2V3.4c0-1.1-0.9-2-2-2h-30.8c-1.1,0-2,0.9-2,2V13C433.4,14.1,434.3,15,435.4,15
			z"/>
		<path class="st0" d="M435.4,63.1h30.8c1.1,0,2-0.9,2-2v-9.6c0-1.1-0.9-2-2-2h-30.8c-1.1,0-2,0.9-2,2v9.6
			C433.4,62.2,434.3,63.1,435.4,63.1z"/>
		<path class="st0" d="M455.6,3.2v58.1c0,1,0.8,1.9,1.9,1.9h8.9c1,0,1.9-0.8,1.9-1.9V3.2c0-1-0.8-1.9-1.9-1.9h-8.9
			C456.4,1.4,455.6,2.2,455.6,3.2z"/>
	</g>
	<circle class="st0" cx="404.2" cy="31.2" r="10.8"/>
	<circle class="st0" cx="439.8" cy="31.2" r="10.8"/>
</g>
<text transform="matrix(1 0 0 1 101.5711 48.7628)" class="st2 st3 st4" fill="#fff">GitButn</text>
<g>
	<path class="st1" d="M35,15.1H12.7c-3.5,0-6.3-2.8-6.3-6.3V7.8c0-3.5,2.8-6.3,6.3-6.3H35c3.5,0,6.3,2.8,6.3,6.3v1.1
		C41.3,12.3,38.4,15.1,35,15.1z"/>
	<path class="st1" d="M35,63.3H12.7c-3.5,0-6.3-2.8-6.3-6.3v-1.1c0-3.5,2.8-6.3,6.3-6.3H35c3.5,0,6.3,2.8,6.3,6.3V57
		C41.3,60.4,38.4,63.3,35,63.3z"/>
	<path class="st1" d="M19,7.8L19,57c0,3.5-2.8,6.3-6.3,6.3h0c-3.5,0-6.3-2.8-6.3-6.3V7.8c0-3.5,2.8-6.3,6.3-6.3h0
		C16.2,1.5,19,4.3,19,7.8z"/>
</g>
<g>
	<path class="st1" d="M70.2,15.1h21.9c3.6,0,6.4-2.9,6.4-6.4V7.9c0-3.6-2.9-6.4-6.4-6.4H70.2c-3.6,0-6.4,2.9-6.4,6.4v0.8
		C63.8,12.3,66.7,15.1,70.2,15.1z"/>
	<path class="st1" d="M70.2,63.3h21.9c3.6,0,6.4-2.9,6.4-6.4v-0.8c0-3.6-2.9-6.4-6.4-6.4H70.2c-3.6,0-6.4,2.9-6.4,6.4v0.8
		C63.8,60.4,66.7,63.3,70.2,63.3z"/>
	<path class="st1" d="M86,7.8V57c0,3.5,2.8,6.3,6.3,6.3h0c3.5,0,6.3-2.8,6.3-6.3V7.8c0-3.5-2.8-6.3-6.3-6.3h0
		C88.8,1.5,86,4.3,86,7.8z"/>
</g>
<path class="st1" d="M75.7,40.2h-46c-1.1,0-2-0.9-2-2V25.8c0-1.1,0.9-2,2-2h46c1.1,0,2,0.9,2,2v12.4C77.7,39.3,76.8,40.2,75.7,40.2z
	"/>
</svg>
