<?xml version="1.0" encoding="iso-8859-1"?>
<!-- Generator: Adobe Illustrator 19.0.0, SVG Export Plug-In . SVG Version: 6.00 Build 0)  -->
<svg version="1.1" id="Capa_1" xmlns="http://www.w3.org/2000/svg" xmlns:xlink="http://www.w3.org/1999/xlink" x="0px" y="0px"
	 viewBox="0 0 512 512" style="enable-background:new 0 0 512 512;" xml:space="preserve">
<g>
	<g>
		<path d="M482,287c0-24.813-20.187-45-45-45h-66.833c8.28-22.387,13.415-48.978,16.417-69.121
			c3.032-20.334-2.919-40.917-16.327-56.473C356.889,100.896,337.477,92,317,92c-8.284,0-15,6.716-15,15
			c0,36.237-20.825,90.941-45.128,103.126c-27.356,13.713-81.172,28.91-91.891,31.874c-6.692,0-143.512,0-149.98,0
			c-8.284,0-15,6.716-15,15v210c-0.001,8.284,6.715,15,14.999,15h45v15c0,8.284,6.716,15,15,15h62
			c18.321,0,34.108-11.011,41.122-26.758l105.24,26.31c1.19,0.297,2.412,0.448,3.638,0.448h90c24.813,0,45-20.187,45-45
			c0-5.852-1.123-11.446-3.164-16.579C437.924,445.211,452,427.718,452,407c0-5.852-1.123-11.446-3.164-16.579
			C467.924,385.211,482,367.718,482,347c0-11.515-4.347-22.033-11.486-30C477.653,309.033,482,298.515,482,287z M59.999,452h-30V272
			h30V452z M151.999,467c0,8.271-6.729,15-15,15h-47V272h62V467z M347,332h90c8.271,0,15,6.729,15,15s-6.729,15-15,15
			c-11.31,0-80.756,0-90,0c-8.284,0-15,6.716-15,15s6.716,15,15,15h60c8.271,0,15,6.729,15,15s-6.729,15-15,15
			c-6.359,0-53.641,0-60,0c-8.284,0-15,6.716-15,15s6.716,15,15,15h30c8.271,0,15,6.729,15,15s-6.729,15-15,15h-88.153
			l-106.847-26.711V268.376c20.238-5.811,63.165-18.822,88.316-31.431c34.45-17.271,55.545-71.899,60.535-112.494
			c6.381,2.334,12.141,6.272,16.684,11.542c7.704,8.937,11.122,20.769,9.378,32.462c-7.105,47.654-16.018,67.215-23.329,81.836
			c-2.325,4.65-2.077,10.172,0.656,14.594c2.733,4.422,7.561,7.115,12.76,7.115h90c8.271,0,15,6.729,15,15s-6.729,15-15,15h-90
			c-8.284,0-15,6.716-15,15S338.716,332,347,332z"/>
	</g>
</g>
<g>
	<g>
		<path d="M332,0c-8.284,0-15,6.716-15,15v32c0,8.284,6.716,15,15,15s15-6.716,15-15V15C347,6.716,340.284,0,332,0z"/>
	</g>
</g>
<g>
	<g>
		<path d="M247.147,75.934l-21.213-21.213c-5.857-5.858-15.355-5.858-21.213,0c-5.858,5.858-5.858,15.355,0,21.213l21.213,21.213
			c5.857,5.858,15.356,5.858,21.213,0C253.005,91.289,253.005,81.792,247.147,75.934z"/>
	</g>
</g>
<g>
	<g>
		<path d="M196.999,167h-30c-8.284,0-15,6.716-15,15s6.716,15,15,15h30c8.284,0,15-6.716,15-15S205.283,167,196.999,167z"/>
	</g>
</g>
<g>
	<g>
		<path d="M497,167h-30c-8.284,0-15,6.716-15,15s6.716,15,15,15h30c8.284,0,15-6.716,15-15S505.284,167,497,167z"/>
	</g>
</g>
<g>
	<g>
		<path d="M459.279,54.721c-5.857-5.858-15.355-5.858-21.213,0l-21.213,21.213c-5.858,5.858-5.858,15.355,0,21.213
			c5.857,5.858,15.356,5.858,21.213,0l21.213-21.213C465.137,70.076,465.137,60.579,459.279,54.721z"/>
	</g>
</g>
<g>
</g>
<g>
</g>
<g>
</g>
<g>
</g>
<g>
</g>
<g>
</g>
<g>
</g>
<g>
</g>
<g>
</g>
<g>
</g>
<g>
</g>
<g>
</g>
<g>
</g>
<g>
</g>
<g>
</g>
</svg>
