<?xml version="1.0" encoding="utf-8"?>
<!-- Generator: Adobe Illustrator 22.1.0, SVG Export Plug-In . SVG Version: 6.00 Build 0)  -->
<svg version="1.1" id="Layer_1" xmlns="http://www.w3.org/2000/svg" xmlns:xlink="http://www.w3.org/1999/xlink" x="0px" y="0px"
	 viewBox="0 0 155.33 260.44" style="enable-background:new 0 0 155.33 260.44;" xml:space="preserve">
<path style="fill:#FFFFFF;" d="M122.45,2c0.33,0.02,3.61,0.24,6.79,1.93c4.23,2.24,6.37,6.03,6.37,11.27v77.12h-14.67h-2v2v15.13
	c-0.03,0.62-0.04,3.29,2.01,5.51c1.38,1.5,3.33,2.41,5.81,2.72v25.89v2h2h18.08c0.79,0.15,6.5,1.59,6.5,11.1v42.23
	c-1.22,0.11-2.97,0.23-4.92,0.23c-4.84,0-12.96-0.75-12.96-5.78v-2h-2H94.96c-0.13-0.01-0.37-0.02-0.69-0.02
	c-1.62,0-4.78,0.27-7.67,2.11c-2.6,1.65-5.69,5.06-5.69,11.96v53.03H2V2H122.45 M122.5,0H0v260.44h82.9c0,0,0-41.93,0-55.03
	c0-11.29,8.91-12.07,11.36-12.07c0.39,0,0.62,0.02,0.62,0.02s21.36,0,38.56,0c0,6.55,8.55,7.78,14.96,7.78
	c3.85,0,6.92-0.44,6.92-0.44s0-31.96,0-44.02c0-12.05-8.34-13.1-8.34-13.1h-18.24c0,0,0-16.77,0-27.77c-8.34,0-7.82-6.29-7.82-6.29
	v-15.2h16.67c0,0,0-64.45,0-79.12C137.61,0.52,122.5,0,122.5,0L122.5,0z"/>
</svg>
