<?xml version="1.0" encoding="utf-8"?>
<!-- Generator: Adobe Illustrator 22.1.0, SVG Export Plug-In . SVG Version: 6.00 Build 0)  -->
<svg version="1.1" id="Layer_1" xmlns="http://www.w3.org/2000/svg" xmlns:xlink="http://www.w3.org/1999/xlink" x="0px" y="0px"
	 viewBox="0 0 200 300" style="enable-background:new 0 0 200 300;" xml:space="preserve">
<path style="fill:none;stroke:#ffffff;stroke-miterlimit:10;" d="M192.88,27.12h-70.39c0,0-26.24-1.5-26.24-26.24
	c-22.49,0-58.47,0-58.47,0s-4.5,30.74,14.24,30.74l1.5,77.97H16.79c0,0-14.24-0.01-14.24,16.49s0,40.48,0,40.48
	s21.37,4.12,37.48-11.99h44.98c0,0,12.71,1.5,12.71,30.74s0,44.98,0,44.98H61.77c0,0-15.74-1.5-15.74,17.99s0,51.73,0,51.73h151.43
	L192.88,27.12z"/>
</svg>
