<?xml version="1.0" encoding="iso-8859-1"?>
<!-- Generator: Adobe Illustrator 19.0.0, SVG Export Plug-In . SVG Version: 6.00 Build 0)  -->
<svg version="1.1" id="Layer_1" xmlns="http://www.w3.org/2000/svg" xmlns:xlink="http://www.w3.org/1999/xlink" x="0px" y="0px"
	 viewBox="0 0 512.001 512.001" style="enable-background:new 0 0 512.001 512.001;" xml:space="preserve">
<g>
	<g>
		<g>
			<path d="M331.881,138.479l-41.577-6.042l-18.593-37.675c-6.413-12.995-25.004-13.003-31.421,0l-18.593,37.675l-41.577,6.042
				c-14.34,2.084-20.093,19.761-9.709,29.882l30.086,29.325l-7.102,41.409c-2.449,14.282,12.585,25.216,25.42,18.469l37.188-19.551
				l37.188,19.551c12.782,6.724,27.879-4.118,25.418-18.469l-7.102-41.409l30.086-29.325
				C351.967,158.247,346.23,140.564,331.881,138.479z M278.072,210.032c-23.589-12.401-19.839-12.776-44.144,0
				c4.503-26.246,6.033-22.806-13.641-41.984c27.141-3.944,23.919-2.049,35.713-25.946c11.815,23.94,8.578,22.003,35.713,25.946
				C272.595,186.684,273.437,183.006,278.072,210.032z"/>
			<path d="M509.618,404.762l-105.84-183.328C437.21,121,362.258,16.569,256,16.569c-106.281,0-181.197,104.464-147.778,204.863
				L2.382,404.762c-7.441,12.888,3.632,28.647,18.289,26l68.417-12.37l23.488,65.441c5.021,13.986,24.184,15.794,31.661,2.842
				l92.32-159.904c12.954,1.605,25.922,1.605,38.884,0l92.32,159.904c7.476,12.95,26.64,11.149,31.661-2.842l23.488-65.441
				l68.417,12.37C505.976,433.407,517.065,417.66,509.618,404.762z M132.79,436.426l-15.732-43.831
				c-2.89-8.051-11.174-12.845-19.607-11.321l-45.833,8.287l75.192-130.243c17.889,26.661,43.956,47.345,74.314,58.75
				L132.79,436.426z M143.757,216.688C112.446,137.602,170.649,51.607,256,51.607c85.417,0,143.537,86.038,112.244,165.08
				C327.705,319.048,183.623,317.357,143.757,216.688z M414.549,381.273c-8.422-1.521-16.715,3.264-19.607,11.321l-15.732,43.831
				l-68.335-118.36c29.649-11.209,55.037-30.548,74.314-58.75l75.192,130.243L414.549,381.273z"/>
		</g>
	</g>
</g>
<g>
</g>
<g>
</g>
<g>
</g>
<g>
</g>
<g>
</g>
<g>
</g>
<g>
</g>
<g>
</g>
<g>
</g>
<g>
</g>
<g>
</g>
<g>
</g>
<g>
</g>
<g>
</g>
<g>
</g>
</svg>
